<?xml version="1.0" encoding="utf-8"?>

<!DOCTYPE svg PUBLIC "-//W3C//DTD SVG 1.0//EN"    "http://www.w3.org/TR/2001/REC-SVG-20010904/DTD/svg10.dtd" [
	]>
<svg  xmlns="&ns_svg;" xmlns:xlink="&ns_xlink;" 
	 width="126.091" height="110.664" viewBox="0 0 126.091 110.664" overflow="visible" enable-background="new 0 0 126.091 110.664"
	 xml:space="preserve">
		<g id="Ebene_1">
			<path opacity="0.2" d="M1.091,103.07c0,4.191,27.792,7.594,62.078,7.594c34.286,0,62.083-3.403,62.083-7.594
				c0-4.196-27.797-7.594-62.083-7.594C28.883,95.476,1.091,98.874,1.091,103.07z"/>
			<g>
				<g>
					<path d="M36.156,65.538c0-24.831,20.131-44.968,44.967-44.968c24.831,0,44.968,20.137,44.968,44.968
						c0,24.836-20.137,44.973-44.968,44.973C56.288,110.511,36.156,90.375,36.156,65.538z"/>
				</g>
				<g>
					
						<radialGradient id="XMLID_7_" cx="62.9126" cy="54.4009" r="59.6793" fx="62.9126" fy="54.4009" gradientUnits="userSpaceOnUse">
						<stop  offset="0.1404" style="stop-color:#FFFFFF"/>
						<stop  offset="0.2277" style="stop-color:#FBFDFE"/>
						<stop  offset="0.3209" style="stop-color:#EEF8F9"/>
						<stop  offset="0.417" style="stop-color:#D8F0F2"/>
						<stop  offset="0.515" style="stop-color:#BAE4E7"/>
						<stop  offset="0.6146" style="stop-color:#94D5DA"/>
						<stop  offset="0.7139" style="stop-color:#65C3CA"/>
						<stop  offset="0.7697" style="stop-color:#48B8C0"/>
						<stop  offset="1" style="stop-color:#245C60"/>
						<a:midPointStop  offset="0.1404" style="stop-color:#FFFFFF"/>
						<a:midPointStop  offset="0.6935" style="stop-color:#FFFFFF"/>
						<a:midPointStop  offset="0.7697" style="stop-color:#48B8C0"/>
						<a:midPointStop  offset="0.5" style="stop-color:#48B8C0"/>
						<a:midPointStop  offset="1" style="stop-color:#245C60"/>
					</radialGradient>
					<path fill="url(#XMLID_7_)" d="M39.686,65.538c0-22.883,18.55-41.433,41.433-41.433c22.889,0,41.438,18.549,41.438,41.433
						s-18.549,41.438-41.438,41.438C58.236,106.976,39.686,88.421,39.686,65.538z"/>
				</g>
				<g>
					<g>
						<g>
							<path fill="#259931" d="M94.394,105.038c0.509-2.157,1.424-7.314-0.601-7.69c-2.024-0.381-5.829-0.636-6.968-1.902
								c-1.14-1.271-2.284-1.271-3.042-1.775c-0.758-0.504-1.902-2.157-0.758-3.678c1.14-1.521,0.885-3.036-0.636-3.926
								c-1.521-0.885-2.406,0.254-3.672,0.381c-1.271,0.127-4.308-1.902-6.592-1.902s-4.435,0-4.816-1.267
								c-1.394,0.885-9.755-0.636-9.374-3.168c-0.885-0.885-4.181-4.558-5.071-5.829c0.127,1.012,0.89,3.164,1.647,3.8
								c-2.151-1.521-3.926-4.181-4.054-6.21c-1.017-0.885-3.55-5.569-3.168-6.968c0.381-1.394,0.763-6.333,1.521-6.465
								c0.758-0.127,0.127-0.758-0.254-1.516c-0.382-0.763-0.631-2.029-0.631-2.66c0-0.636,0.631-2.284,0-2.411
								c-0.636-0.127-2.029-1.012-1.145-1.012c0.89,0,1.648,0.509,1.648-0.381c0-0.885-0.503-3.296-0.885-3.672
								c-0.382-0.381-0.254-0.259-1.012,0.249c-0.763,0.509-1.521,0.641-1.648,0.259c-0.127-0.381,0.127-0.259,0.763-1.144
								c0.631-0.885,2.151-3.418,2.66-4.308c0.503-0.885,0.381,0.259,2.029-1.648c1.643-1.897,2.533-3.672,2.533-1.897
								c0,1.775,0.376,2.533,1.389,2.533s1.144-0.376,1.266,0.381c0.127,0.758,0.254,1.648,1.272,1.267
								c1.012-0.376,1.897,0.127,2.406-0.376c0.508-0.509-0.382-1.017,0.254-1.145c0.63-0.127,0.885,1.012,1.139,0.127
								c0.254-0.885-0.127-2.279,0.763-1.394c0.885,0.885,1.14,1.017,1.77,0.63c0.636-0.376,2.66-0.503,0.885,0.636
								c-1.77,1.145-1.897,1.012-2.151,2.157c-0.254,1.139-0.382,0.758-1.012,2.024c-0.636,1.267-1.902,2.538-0.254,3.423
								c1.648,0.885,3.799,1.14,3.799,1.14s1.775-1.399,1.521,0.127c-0.254,1.521-0.382,2.406,0.508,2.157
								c0.885-0.254,2.406-0.127,1.394-1.272c-1.017-1.139-0.89-0.376-0.508-2.024s0.127-1.521-0.381-2.284
								c-0.504-0.758-1.77-3.164-0.504-3.291c1.267-0.127,2.279-0.509,2.66,0.127c0.376,0.631,1.648,1.77,2.157,1.14
								c0.503-0.636-0.132-2.411,1.77-1.14c1.902,1.267-0.127,1.902,1.902,1.902s3.926-0.132,3.926,0.376s-1.394,2.915-2.406,3.296
								c-1.012,0.376-1.394-0.509-1.775,0.631c-0.381,1.139-1.648,3.55-0.885,2.66c0.758-0.885,2.024-2.788,2.152-1.643
								c0.132,1.139,0,2.024,1.271,1.902c1.267-0.132,3.164-1.271,1.521,0.376c-1.648,1.648-1.775,2.787-1.648,1.648
								c0.127-1.14,0.127-1.775-0.89-0.254c-1.012,1.521-1.267,2.66-0.758,2.66c0.504,0,0.504,0.381-0.127,0.763
								c-0.636,0.376-1.012,2.152-1.394,3.164c-0.381,1.012-1.145,2.152-0.381,2.284c0.758,0.127,0.503,2.024,0.503,2.024
								s-3.418,3.805-2.151,4.944c1.266,1.14,2.787,2.915,2.151,3.296c-0.631,0.376-2.151-2.029-2.533-2.411
								c-0.376-0.381-4.181-0.885-4.435-0.254c-0.254,0.636,0.636,1.139,0,1.267c-0.631,0.127-2.909,0.636-3.799,1.145
								c-0.885,0.503-1.14,2.151-1.012,2.782c0.122,0.636,0.758,6.083,3.672,5.453c2.914-0.636,3.168-0.89,2.66-2.157l2.284-0.885
								c0,0-0.509,3.677,0.63,3.799c1.145,0.127,2.788-0.254,3.169-0.254s1.267,3.296,2.024,3.55c0.763,0.254,2.915,0,4.186-0.885
								c1.266-0.89,1.902,1.139,2.029,0.127c0.122-1.017,1.516-3.168,2.782-3.677c0,0.885,0,1.775,0.763,1.521
								c0.758-0.254,0.254-1.902,0.254-1.902s5.066,0.254,5.066-1.267c0,0,2.792-0.763,3.423,0.127
								c0.382-0.885,1.018-0.127,2.029,0.127c1.013,0.254,1.648-0.636,3.042-1.267c1.389-0.636,4.43-0.127,4.812,0.885
								c0.382,1.018,1.14,2.024,1.648,0.254l2.914-0.763c0,0,1.647-1.643,2.787-1.77c1.145-0.132,2.284-0.89,2.406-0.132
								c0.132,0.763-0.377,3.805-1.14,4.435c-0.758,0.636-0.376,1.145-0.122,1.775c0.254,0.636-0.382,4.059-0.89,4.689
								c-0.504,0.636,0,0.763-1.013,1.648c-1.018,0.885-1.521,2.151-1.902,2.915c-0.381,0.758-1.012,2.914-2.024,3.799
								c-1.012,0.89-1.647,1.902-1.647,1.902C104.694,98.99,101.021,103.481,94.394,105.038z"/>
						</g>
						<g>
							<path fill="#259931" d="M73.647,75.929c0.763-0.376,0.885-0.508,1.648-0.508c0.758,0,3.164,0.132,3.927,0.132
								c0.763,0,1.012,0.758,0.254,0.885c-0.763,0.127-2.03-0.381-2.915-0.381C75.671,76.057,74.156,76.565,73.647,75.929z"/>
						</g>
						<g>
							<path fill="#259931" d="M82.263,75.553c0.381-0.636,2.029-1.017,2.787-0.636c0.758,0.382-1.648,1.775-2.278,1.648
								C82.136,76.438,82.263,75.553,82.263,75.553z"/>
						</g>
						<g>
							<path fill="#259931" d="M79.476,47.421c0,0,0.381,1.139,0.127,1.648c-0.254,0.503,1.139-0.254,2.157-0.254
								c1.012,0,0.376-0.381,0.122-1.139C81.627,46.912,80.234,47.421,79.476,47.421z"/>
						</g>
						<g>
							<path fill="#259931" d="M66.17,33.861c0.758-0.254,0.885-0.885,2.533,0c1.648,0.89,1.775,0,3.169,1.394
								c1.394,1.394,3.799,3.799,6.841,2.66c-0.631-1.516-1.648-1.902-1.521-3.296c0.132-1.394,0.382-3.423,0.382-3.423
								l-1.267,0.508l-0.127-1.012c0,0-4.436-0.885-5.326-0.763c-0.885,0.127-0.885-0.503-1.516-0.503
								c-0.636,0-0.763,1.012-1.271,1.012c-0.503,0-2.151-0.758-1.897,0.254c0.254,1.012,0.63,1.267,0.127,1.902
								C65.789,33.23,66.17,33.861,66.17,33.861z"/>
						</g>
						<g>
							<path fill="#259931" d="M63.383,37.66c0.509-0.758,1.012-1.261,1.139-0.758c0.127,0.503,0.254,1.012,1.648,0.636
								c1.398-0.381,1.775-0.132,2.278,0.25c0.509,0.381,1.775,0.508,1.775,1.139c0,0.636-0.509,1.017-1.012,0.509
								c-0.509-0.509-1.267-1.267-1.267-0.631c0,0.631,0.376,1.902,1.643,1.775c1.266-0.127,1.653,0.631,0.636,0.631
								c-1.012,0-0.763,0.381-1.394,0.509c-0.636,0.127-1.266-0.763-1.902-0.509c0,0,0.254-1.775-0.504-1.902
								c-0.763-0.127-1.017,0.254-1.017,0.254s0.127-0.636-0.509-0.885c-0.63-0.254-0.885,0.381-1.648,0.381
								C62.498,39.059,61.862,36.902,63.383,37.66z"/>
						</g>
						<g>
							<path fill="#259931" d="M55.906,32.467c0,0,0.127,0.763,0.508,0.636c0.382-0.127,1.902-1.271,2.915-2.029
								c1.012-0.763,1.902-1.521,1.77-1.902C60.972,28.79,57.045,31.328,55.906,32.467z"/>
						</g>
						<g>
							<path fill="#259931" d="M54.385,33.734c0.61-0.204-0.376,1.017-1.139,1.902c-0.763,0.885-1.267,0.885-2.03,1.775
								c-0.758,0.885-2.024,1.897-2.533,2.406s-1.521,1.267-1.521,1.267S53.246,34.115,54.385,33.734z"/>
						</g>
						<g>
							<path fill="#259931" d="M78.967,24.614c-0.127,0.758-0.758,1.139,0.254,1.139s5.071,0.127,6.083,1.139
								c1.017,1.012,4.562,0.503,5.448-0.259c0.89-0.758-0.377-1.012-1.644-0.88c-1.271,0.127-2.411,0.127-3.168-0.254
								c-0.763-0.381-1.648-0.636-1.648-1.145C82.645,24.232,79.73,24.232,78.967,24.614z"/>
						</g>
						<g>
							<path fill="#259931" d="M91.891,25.372c0,0,2.029,1.521,1.521,1.648c-0.509,0.127-1.771,0.127-1.771,0.127
								s1.267,0.127,1.897,0.631c0.636,0.508,0.381,1.398,1.774,1.775c1.395,0.381,1.775,2.151,2.406,2.66
								c0.636,0.509,0.132-0.631,1.145-0.376c1.012,0.254,3.672,1.897,2.909,2.151c-0.758,0.254-1.012,1.272,0.387,2.03
								c1.394,0.758,2.909,1.394,3.291,2.278c0.636-1.012,0.89-2.66-0.255-3.296c-1.139-0.63-2.66-1.266-2.914-2.278
								c-0.254-1.018-0.382-1.902-0.254-2.666C99.496,27.905,92.782,25.499,91.891,25.372z"/>
						</g>
						<g>
							<path fill="#259931" d="M106.845,33.103c0.254,1.012,1.012,4.557,0.254,5.066c-0.758,0.503,0,0.758,0.504,1.267
								c0.509,0.508,0.636,0.254,1.398,1.394c0.758,1.145,1.394,2.029,1.394,3.55c0,1.521,1.013,2.914,1.521,3.799
								c0.509,0.89,3.673,3.296,3.673,4.563c0,1.266-0.127,2.533,1.271,2.787c1.394,0.254,2.024,0.381,2.406,1.012
								c0.381,0.636,1.79,0.814,2.421,0.941C120.923,52.034,117.364,41.465,106.845,33.103z"/>
						</g>
						<g>
							<polygon fill="#259931" points="81.373,31.074 81.373,31.582 83.021,31.836 83.021,30.565 80.87,30.188 "/>
						</g>
						<g>
							<path fill="#259931" d="M89.867,29.426c-0.636,0-0.127,0.63,0.631,0.763c0.763,0.122,1.398,0,2.411,0.122
								c1.012,0.132,1.775,0.254,2.024,0.763c0.254,0.508,0.885,0.508,0.885,0c0-0.509,0.133-1.14-1.012-1.267
								c-1.14-0.127-2.406-0.254-3.042-0.381C91.133,29.298,89.867,29.426,89.867,29.426z"/>
						</g>
						<g>
							<polygon fill="#259931" points="92.273,31.455 93.793,31.455 93.793,32.722 "/>
						</g>
						<g>
							<path fill="#259931" d="M58.948,39.944c0,0-0.381,1.012-0.885,1.012c-0.508,0-1.394-1.139-0.508-1.521
								C58.439,39.059,58.948,39.944,58.948,39.944z"/>
						</g>
						<g>
							<path fill="#259931" d="M57.045,38.55c-0.631,0.503-1.012,1.012-1.394,0.885c-0.381-0.127,0.509-1.14,1.012-1.399
								C57.172,37.788,57.045,38.55,57.045,38.55z"/>
						</g>
						<g>
							<polygon fill="#259931" points="57.936,37.03 58.693,36.775 59.706,37.915 60.596,37.915 60.341,39.308 59.833,39.308 "/>
						</g>
						<g>
							<path fill="#259931" d="M62.116,34.497c0.631-0.127,1.394-0.127,1.775-1.775c0.376-1.648,1.012-1.018,0.758,0.127
								c-0.254,1.139-1.267,1.267-0.758,1.902c0.503,0.631,0.249,0.376-0.509,0.254C62.62,34.878,62.116,35.127,62.116,34.497z"/>
						</g>
					</g>
				</g>
			</g>
			<g>
				<radialGradient id="XMLID_8_" cx="39.5376" cy="5.7871" r="64.8666" fx="39.5376" fy="5.7871" gradientUnits="userSpaceOnUse">
					<stop  offset="0.0056" style="stop-color:#FFFFFF"/>
					<stop  offset="0.0548" style="stop-color:#F4F4F4"/>
					<stop  offset="0.1403" style="stop-color:#D8D8D8"/>
					<stop  offset="0.2191" style="stop-color:#B8B8B8"/>
					<stop  offset="0.4438" style="stop-color:#9E9E9E"/>
					<stop  offset="1" style="stop-color:#616161"/>
					<a:midPointStop  offset="0.0056" style="stop-color:#FFFFFF"/>
					<a:midPointStop  offset="0.584" style="stop-color:#FFFFFF"/>
					<a:midPointStop  offset="0.2191" style="stop-color:#B8B8B8"/>
					<a:midPointStop  offset="0.5" style="stop-color:#B8B8B8"/>
					<a:midPointStop  offset="0.4438" style="stop-color:#9E9E9E"/>
					<a:midPointStop  offset="0.5" style="stop-color:#9E9E9E"/>
					<a:midPointStop  offset="1" style="stop-color:#616161"/>
				</radialGradient>
				<path fill="url(#XMLID_8_)" stroke="#000000" stroke-width="3.1222" d="M60.234,6.049c-1.592-1.562-10.233-8.397-20.386-1.378
					C32.804,9.539,22.84,16.746,15.47,28.292c-18.916,29.627-6.134,48.94-1.587,51.453c4.552,2.513,11.108,1.343,14.954-6.597
					c3.851-7.944,2.767-13.809-1.663-15.981c-4.893-2.4-11.546-1.714-11.546-1.714s-1.246-16.058,11.124-29.109
					c12.431-13.117,13.377-9.847,13.377-9.847s-0.641,6.327,4.984,9.958c3.662,2.36,9.689,3.169,15.249-6.566
					C65.062,11.659,61.821,7.605,60.234,6.049z"/>
				<linearGradient id="XMLID_9_" gradientUnits="userSpaceOnUse" x1="16.1343" y1="66.2192" x2="27.5797" y2="72.4188">
					<stop  offset="0.0056" style="stop-color:#FFFFFF"/>
					<stop  offset="0.093" style="stop-color:#F4F4F4"/>
					<stop  offset="0.2457" style="stop-color:#D7D7D7"/>
					<stop  offset="0.4455" style="stop-color:#A8A8A8"/>
					<stop  offset="0.6825" style="stop-color:#686868"/>
					<stop  offset="0.7079" style="stop-color:#616161"/>
					<stop  offset="1" style="stop-color:#000000"/>
					<a:midPointStop  offset="0.0056" style="stop-color:#FFFFFF"/>
					<a:midPointStop  offset="0.584" style="stop-color:#FFFFFF"/>
					<a:midPointStop  offset="0.7079" style="stop-color:#616161"/>
					<a:midPointStop  offset="0.5" style="stop-color:#616161"/>
					<a:midPointStop  offset="1" style="stop-color:#000000"/>
				</linearGradient>
				<path fill="url(#XMLID_9_)" d="M27.535,72.496c-3.148,5.625-8.239,8.759-11.378,7.004c-3.133-1.755-3.128-7.736,0.021-13.356
					c3.144-5.625,8.24-8.764,11.373-7.009C30.688,60.889,30.683,66.871,27.535,72.496z"/>
				<linearGradient id="XMLID_10_" gradientUnits="userSpaceOnUse" x1="55.7231" y1="6.6714" x2="48.9478" y2="27.8442">
					<stop  offset="0.0056" style="stop-color:#FFFFFF"/>
					<stop  offset="0.093" style="stop-color:#F4F4F4"/>
					<stop  offset="0.2457" style="stop-color:#D7D7D7"/>
					<stop  offset="0.4455" style="stop-color:#A8A8A8"/>
					<stop  offset="0.6825" style="stop-color:#686868"/>
					<stop  offset="0.7079" style="stop-color:#616161"/>
					<stop  offset="1" style="stop-color:#000000"/>
					<a:midPointStop  offset="0.0056" style="stop-color:#FFFFFF"/>
					<a:midPointStop  offset="0.584" style="stop-color:#FFFFFF"/>
					<a:midPointStop  offset="0.7079" style="stop-color:#616161"/>
					<a:midPointStop  offset="0.5" style="stop-color:#616161"/>
					<a:midPointStop  offset="1" style="stop-color:#000000"/>
				</linearGradient>
				<path fill="url(#XMLID_10_)" d="M58.398,19.238c-3.148,5.625-8.24,8.759-11.378,7.004c-3.138-1.75-3.128-7.731,0.02-13.356
					c3.144-5.625,8.24-8.764,11.373-7.009C61.552,7.631,61.542,13.612,58.398,19.238z"/>
				
					<linearGradient id="XMLID_11_" gradientUnits="userSpaceOnUse" x1="-45.4702" y1="19.647" x2="-56.3253" y2="30.0942" gradientTransform="matrix(0.7796 0.6545 -0.6586 0.7919 109.9289 30.2719)">
					<stop  offset="0" style="stop-color:#FFFFFF"/>
					<stop  offset="0.5843" style="stop-color:#88CCD2"/>
					<a:midPointStop  offset="0" style="stop-color:#FFFFFF"/>
					<a:midPointStop  offset="0.5" style="stop-color:#FFFFFF"/>
					<a:midPointStop  offset="0.5843" style="stop-color:#88CCD2"/>
				</linearGradient>
				<path fill="url(#XMLID_11_)" d="M59.049,19.553c-2.909,5.198-7.583,8.118-10.447,6.516c-2.858-1.603-2.817-7.111,0.086-12.314
					c2.91-5.198,7.589-8.113,10.447-6.516C62,8.841,61.958,14.35,59.049,19.553z"/>
				<path fill="none" stroke="#000000" stroke-width="1.5611" stroke-linecap="round" d="M15.17,56.001c0,0-4.339,3.352-4.975,6.419
					"/>
				
					<linearGradient id="XMLID_12_" gradientUnits="userSpaceOnUse" x1="-12.5522" y1="66.4316" x2="-22.2265" y2="72.7737" gradientTransform="matrix(0.9138 0.5112 -0.4883 0.8727 75.3646 17.8155)">
					<stop  offset="0" style="stop-color:#FFFFFF"/>
					<stop  offset="0.5843" style="stop-color:#88CCD2"/>
					<a:midPointStop  offset="0" style="stop-color:#FFFFFF"/>
					<a:midPointStop  offset="0.5" style="stop-color:#FFFFFF"/>
					<a:midPointStop  offset="0.5843" style="stop-color:#88CCD2"/>
				</linearGradient>
				<path fill="url(#XMLID_12_)" d="M28.186,72.781c-2.823,5.046-7.497,7.803-10.442,6.155c-2.939-1.648-3.042-7.07-0.219-12.116
					c2.823-5.045,7.498-7.802,10.442-6.154S31.009,67.735,28.186,72.781z"/>
				<path d="M21.182,69.343c-0.387,0.641-0.987,0.981-1.348,0.763c-0.361-0.213-0.341-0.905,0.045-1.546
					c0.382-0.641,0.987-0.982,1.348-0.768C21.589,68.01,21.563,68.702,21.182,69.343z"/>
				<path d="M20.892,75.665c-0.381,0.641-0.986,0.981-1.343,0.768c-0.361-0.219-0.341-0.911,0.046-1.552
					c0.381-0.641,0.987-0.981,1.343-0.768C21.299,74.332,21.279,75.024,20.892,75.665z"/>
				<path d="M26.212,66.144c-0.381,0.636-0.987,0.981-1.348,0.763c-0.361-0.213-0.341-0.91,0.046-1.551
					c0.386-0.636,0.986-0.981,1.348-0.763C26.62,64.806,26.599,65.502,26.212,66.144z"/>
				<path d="M26.162,71.601c-0.381,0.641-0.987,0.981-1.348,0.768c-0.356-0.219-0.336-0.911,0.045-1.551
					c0.387-0.641,0.987-0.982,1.348-0.768C26.568,70.269,26.548,70.96,26.162,71.601z"/>
				<path opacity="0.1" d="M56.283,17.615c-1.582,2.467-3.932,3.774-5.259,2.93c-1.323-0.854-1.114-3.535,0.463-6.001
					c1.582-2.467,3.937-3.774,5.259-2.925C58.068,12.463,57.859,15.148,56.283,17.615z"/>
			</g>
			<g>
				<g>
					<path fill="#FFFFFF" d="M36.853,73.803l-2.742,7.284l-1.668-0.748l1.465-3.901c0.213-0.564,0.331-0.911,0.346-1.033
						c0.021-0.127-0.015-0.244-0.107-0.351c-0.086-0.107-0.325-0.25-0.712-0.417l-0.168-0.076l0.32-0.849
						c0.88,0.167,1.643,0.056,2.279-0.346L36.853,73.803z"/>
					<path fill="#FFFFFF" d="M43.577,76.463l-5.651,7.68l-1.765-1.531l3.032-4.115c0.437-0.6,0.687-0.966,0.748-1.109
						s0.056-0.295-0.015-0.463c-0.071-0.163-0.311-0.422-0.717-0.778l-0.178-0.152l0.661-0.896c0.997,0.544,1.948,0.697,2.849,0.458
						L43.577,76.463z"/>
					<path fill="#FFFFFF" d="M48.673,82.394l-1.145,3.031c-0.264,0.687-0.488,1.175-0.671,1.46
						c-0.188,0.285-0.442,0.514-0.763,0.691c-0.32,0.178-0.656,0.254-1.007,0.239c-0.356-0.015-0.717-0.112-1.099-0.28
						c-0.498-0.219-0.89-0.468-1.175-0.743c-0.285-0.27-0.473-0.585-0.569-0.936c-0.097-0.356-0.127-0.697-0.102-1.028
						c0.031-0.331,0.163-0.819,0.407-1.459l1.195-3.174c0.315-0.834,0.616-1.429,0.906-1.785c0.29-0.356,0.676-0.575,1.169-0.651
						c0.488-0.071,1.012,0.016,1.572,0.265c0.463,0.204,0.839,0.473,1.134,0.809c0.3,0.336,0.488,0.667,0.575,0.997
						c0.082,0.331,0.097,0.671,0.041,1.012C49.09,81.188,48.933,81.702,48.673,82.394z M46.868,80.695
						c0.183-0.483,0.275-0.793,0.28-0.936c0.005-0.137-0.076-0.244-0.234-0.315c-0.152-0.071-0.28-0.051-0.381,0.056
						c-0.097,0.107-0.234,0.396-0.412,0.865L44.447,84.8c-0.198,0.529-0.295,0.859-0.29,0.987c0.005,0.132,0.086,0.229,0.244,0.3
						c0.153,0.071,0.28,0.051,0.376-0.056s0.229-0.381,0.397-0.829L46.868,80.695z"/>
					<path fill="#FFFFFF" d="M58.643,83.925l-0.829,3.835c-0.188,0.87-0.366,1.491-0.539,1.867
						c-0.173,0.376-0.438,0.702-0.783,0.977c-0.351,0.275-0.732,0.438-1.155,0.494c-0.422,0.051-0.87,0.015-1.348-0.107
						c-0.631-0.158-1.14-0.371-1.526-0.636c-0.382-0.265-0.662-0.6-0.839-0.997c-0.173-0.402-0.275-0.798-0.3-1.195
						c-0.02-0.396,0.051-1.002,0.229-1.811l0.865-4.013c0.229-1.053,0.478-1.826,0.763-2.309c0.28-0.478,0.702-0.814,1.272-1.007
						c0.564-0.188,1.205-0.193,1.917-0.016c0.575,0.153,1.073,0.392,1.48,0.728c0.412,0.341,0.697,0.692,0.854,1.068
						c0.158,0.376,0.234,0.773,0.229,1.19C58.927,82.409,58.831,83.055,58.643,83.925z M56.211,82.287
						c0.132-0.61,0.188-1.002,0.163-1.165c-0.021-0.173-0.127-0.28-0.331-0.331c-0.198-0.051-0.346,0-0.442,0.147
						s-0.208,0.514-0.336,1.109l-1.21,5.605c-0.147,0.666-0.204,1.078-0.173,1.231c0.03,0.152,0.142,0.254,0.335,0.3
						c0.199,0.051,0.341,0.005,0.438-0.143c0.097-0.142,0.208-0.498,0.326-1.063L56.211,82.287z"/>
					<path fill="#FFFFFF" d="M66.623,80.782l-0.732,11.77l-2.706-0.198l0.396-6.312c0.056-0.911,0.066-1.46,0.041-1.643
						c-0.031-0.188-0.132-0.335-0.305-0.442c-0.178-0.107-0.575-0.188-1.201-0.234l-0.264-0.016l0.081-1.378
						c1.328-0.208,2.36-0.763,3.098-1.663L66.623,80.782z"/>
					<path fill="#FFFFFF" d="M73.205,80.06l1.684,11.663l-2.681,0.458l-0.9-6.256c-0.132-0.9-0.229-1.439-0.295-1.617
						c-0.066-0.173-0.193-0.295-0.387-0.356c-0.193-0.066-0.6-0.041-1.215,0.061l-0.265,0.046l-0.198-1.363
						c1.251-0.519,2.146-1.307,2.681-2.365L73.205,80.06z"/>
					<path fill="#FFFFFF" d="M78.703,77.379l4.547,10.722l-2.462,1.236l-2.441-5.753c-0.351-0.829-0.58-1.317-0.687-1.47
						c-0.107-0.147-0.259-0.224-0.463-0.229c-0.198-0.005-0.585,0.137-1.155,0.422l-0.244,0.122l-0.529-1.251
						c1.073-0.875,1.734-1.897,1.983-3.072L78.703,77.379z"/>
					<path fill="#FFFFFF" d="M85.172,71.006l6.582,11.77l-2.701,1.785l-3.53-6.312c-0.509-0.91-0.834-1.444-0.977-1.602
						s-0.331-0.224-0.564-0.198s-0.667,0.244-1.287,0.656l-0.27,0.178l-0.768-1.373c1.134-1.17,1.775-2.452,1.923-3.851
						L85.172,71.006z"/>
					<path fill="#FFFFFF" d="M100.253,69.485l0.864,5.163c0.193,1.175,0.28,2.04,0.255,2.599c-0.031,0.56-0.193,1.109-0.483,1.648
						c-0.29,0.534-0.682,0.957-1.17,1.267c-0.488,0.305-1.053,0.524-1.699,0.651c-0.849,0.168-1.576,0.199-2.177,0.097
						c-0.6-0.102-1.104-0.346-1.516-0.732c-0.407-0.386-0.728-0.819-0.951-1.292c-0.224-0.468-0.427-1.251-0.61-2.345l-0.9-5.401
						c-0.239-1.424-0.305-2.513-0.198-3.266c0.112-0.748,0.468-1.404,1.063-1.968c0.6-0.56,1.383-0.931,2.339-1.119
						c0.778-0.158,1.501-0.142,2.167,0.031c0.667,0.173,1.19,0.448,1.562,0.814c0.377,0.366,0.666,0.809,0.865,1.322
						C99.862,67.466,100.06,68.31,100.253,69.485z M96.479,68.88c-0.137-0.819-0.259-1.328-0.366-1.521
						c-0.111-0.193-0.295-0.264-0.569-0.208c-0.265,0.051-0.417,0.193-0.468,0.433c-0.046,0.239-0.006,0.752,0.127,1.551
						l1.262,7.558c0.152,0.9,0.284,1.434,0.392,1.602c0.111,0.168,0.3,0.229,0.56,0.173c0.264-0.051,0.422-0.193,0.468-0.427
						s0.005-0.727-0.122-1.485L96.479,68.88z"/>
					<path fill="#FFFFFF" d="M110.812,62.456l2.94,15.396l-3.535,0.798l-1.577-8.255c-0.224-1.19-0.387-1.902-0.488-2.131
						c-0.097-0.229-0.274-0.376-0.534-0.447c-0.259-0.071-0.798-0.016-1.617,0.167l-0.346,0.082l-0.346-1.8
						c1.633-0.784,2.771-1.897,3.423-3.337L110.812,62.456z"/>
					<path fill="#FFFFFF" d="M121.575,66.423l1.546,3.555c0.352,0.809,0.57,1.419,0.646,1.831c0.081,0.407,0.061,0.839-0.056,1.292
						c-0.112,0.447-0.321,0.839-0.621,1.165c-0.295,0.326-0.666,0.6-1.108,0.829c-0.585,0.3-1.104,0.478-1.562,0.529
						c-0.448,0.051-0.854-0.015-1.226-0.213c-0.361-0.193-0.672-0.438-0.916-0.728c-0.249-0.295-0.534-0.819-0.859-1.572
						l-1.623-3.723c-0.422-0.977-0.661-1.75-0.722-2.314c-0.056-0.57,0.081-1.119,0.417-1.653c0.336-0.529,0.829-0.966,1.49-1.302
						c0.539-0.275,1.063-0.422,1.577-0.438c0.514-0.01,0.936,0.076,1.276,0.259c0.336,0.188,0.625,0.448,0.859,0.773
						C120.929,65.045,121.224,65.614,121.575,66.423z M118.737,66.784c-0.249-0.564-0.428-0.905-0.539-1.022
						c-0.112-0.117-0.265-0.127-0.448-0.03c-0.183,0.091-0.27,0.229-0.264,0.412c0.01,0.178,0.132,0.544,0.371,1.093l2.264,5.203
						c0.27,0.621,0.457,0.977,0.569,1.079c0.111,0.097,0.254,0.102,0.438,0.01c0.183-0.097,0.27-0.234,0.259-0.412
						c-0.005-0.173-0.127-0.529-0.351-1.048L118.737,66.784z"/>
				</g>
				<g>
					<path d="M35.414,71.423l-2.736,7.284l-1.673-0.743l1.47-3.906c0.214-0.564,0.326-0.905,0.346-1.033
						c0.016-0.122-0.02-0.239-0.112-0.351c-0.086-0.107-0.325-0.244-0.712-0.417l-0.163-0.076l0.315-0.849
						c0.88,0.173,1.643,0.056,2.284-0.346L35.414,71.423z"/>
					<path d="M42.138,74.083l-5.651,7.686l-1.76-1.531l3.026-4.12c0.437-0.595,0.687-0.966,0.748-1.109
						c0.066-0.143,0.061-0.295-0.015-0.458c-0.071-0.163-0.311-0.422-0.717-0.778l-0.173-0.153l0.656-0.895
						c1.002,0.539,1.948,0.691,2.849,0.458L42.138,74.083z"/>
					<path d="M47.234,80.014l-1.145,3.031c-0.259,0.692-0.483,1.18-0.671,1.46c-0.188,0.285-0.443,0.514-0.763,0.691
						c-0.32,0.178-0.656,0.26-1.007,0.239c-0.351-0.015-0.717-0.107-1.099-0.274c-0.498-0.224-0.89-0.473-1.175-0.743
						c-0.28-0.275-0.473-0.59-0.569-0.941c-0.092-0.351-0.127-0.697-0.102-1.028c0.031-0.331,0.163-0.813,0.407-1.455l1.195-3.174
						c0.315-0.839,0.616-1.429,0.906-1.79c0.29-0.356,0.681-0.57,1.169-0.646c0.488-0.077,1.012,0.01,1.577,0.264
						c0.458,0.204,0.834,0.473,1.134,0.804c0.295,0.341,0.483,0.671,0.569,1.002s0.097,0.667,0.046,1.012
						C47.651,78.808,47.494,79.322,47.234,80.014z M45.434,78.32c0.183-0.483,0.274-0.798,0.274-0.936
						c0.005-0.142-0.071-0.249-0.234-0.32c-0.152-0.066-0.28-0.046-0.376,0.056c-0.102,0.112-0.239,0.396-0.417,0.865l-1.668,4.44
						c-0.203,0.529-0.3,0.854-0.295,0.987c0.01,0.127,0.086,0.224,0.244,0.295c0.153,0.071,0.28,0.051,0.376-0.051
						c0.097-0.112,0.229-0.386,0.397-0.829L45.434,78.32z"/>
					<path d="M57.203,81.544l-0.829,3.835c-0.188,0.87-0.366,1.496-0.539,1.872c-0.173,0.371-0.433,0.697-0.783,0.977
						c-0.346,0.274-0.732,0.438-1.155,0.488c-0.417,0.056-0.87,0.02-1.348-0.102c-0.631-0.163-1.14-0.376-1.521-0.641
						c-0.387-0.265-0.667-0.595-0.839-0.997c-0.178-0.396-0.28-0.793-0.3-1.195c-0.025-0.396,0.051-1.002,0.224-1.811l0.865-4.008
						c0.229-1.058,0.483-1.826,0.763-2.309c0.28-0.483,0.707-0.819,1.272-1.007c0.569-0.193,1.205-0.193,1.917-0.015
						c0.58,0.147,1.073,0.392,1.48,0.727c0.412,0.336,0.697,0.692,0.854,1.068c0.158,0.371,0.234,0.768,0.229,1.19
						C57.488,80.034,57.391,80.675,57.203,81.544z M54.772,79.912c0.132-0.61,0.188-1.002,0.168-1.17
						c-0.021-0.168-0.132-0.275-0.336-0.326c-0.193-0.051-0.341-0.005-0.438,0.143c-0.102,0.147-0.213,0.519-0.341,1.109l-1.21,5.61
						c-0.143,0.667-0.204,1.073-0.173,1.226c0.03,0.152,0.143,0.254,0.341,0.305c0.193,0.051,0.341,0,0.432-0.143
						c0.097-0.147,0.208-0.499,0.331-1.063L54.772,79.912z"/>
					<path d="M65.184,78.406l-0.732,11.77l-2.701-0.198l0.392-6.312c0.056-0.911,0.066-1.46,0.041-1.648
						c-0.031-0.188-0.132-0.331-0.305-0.442c-0.173-0.107-0.575-0.183-1.2-0.229l-0.265-0.021l0.086-1.373
						c1.322-0.208,2.355-0.763,3.092-1.663L65.184,78.406z"/>
					<path d="M71.77,77.684l1.679,11.663L70.768,89.8l-0.9-6.251c-0.127-0.9-0.224-1.444-0.295-1.617
						c-0.066-0.178-0.193-0.295-0.386-0.361c-0.193-0.061-0.595-0.041-1.216,0.066l-0.265,0.046l-0.198-1.363
						c1.251-0.524,2.146-1.313,2.681-2.365L71.77,77.684z"/>
					<path d="M77.263,74.999l4.547,10.722l-2.462,1.236l-2.436-5.748c-0.351-0.829-0.585-1.323-0.692-1.47s-0.259-0.229-0.463-0.229
						c-0.198-0.005-0.585,0.137-1.155,0.422l-0.244,0.122l-0.529-1.256c1.073-0.87,1.734-1.897,1.984-3.072L77.263,74.999z"/>
					<path d="M83.738,68.63L90.32,80.4l-2.701,1.78l-3.535-6.307c-0.503-0.911-0.834-1.445-0.977-1.603
						c-0.143-0.157-0.331-0.224-0.564-0.198c-0.234,0.021-0.661,0.239-1.287,0.651l-0.27,0.183l-0.768-1.378
						c1.14-1.17,1.78-2.452,1.928-3.851L83.738,68.63z"/>
					<path d="M98.814,67.104l0.864,5.168c0.198,1.17,0.28,2.04,0.249,2.594c-0.025,0.56-0.183,1.109-0.478,1.648
						c-0.29,0.539-0.682,0.961-1.17,1.267c-0.488,0.31-1.053,0.524-1.699,0.656c-0.854,0.163-1.576,0.198-2.172,0.097
						c-0.604-0.102-1.108-0.351-1.516-0.732c-0.412-0.392-0.727-0.819-0.956-1.292c-0.224-0.473-0.427-1.256-0.61-2.345l-0.9-5.407
						c-0.239-1.419-0.3-2.508-0.193-3.26c0.107-0.753,0.463-1.409,1.063-1.969c0.6-0.559,1.378-0.936,2.335-1.124
						c0.777-0.152,1.505-0.142,2.166,0.031c0.667,0.178,1.19,0.448,1.566,0.814c0.377,0.366,0.662,0.809,0.86,1.322
						S98.621,65.93,98.814,67.104z M95.044,66.504c-0.137-0.824-0.259-1.328-0.371-1.521c-0.106-0.199-0.295-0.265-0.564-0.214
						c-0.265,0.056-0.422,0.198-0.468,0.438c-0.051,0.234-0.01,0.753,0.127,1.546l1.262,7.558c0.147,0.9,0.279,1.434,0.387,1.602
						c0.111,0.173,0.3,0.229,0.564,0.178c0.265-0.051,0.417-0.193,0.468-0.427c0.041-0.234,0.005-0.728-0.122-1.49L95.044,66.504z"
						/>
					<path d="M109.373,60.081l2.945,15.396l-3.54,0.793l-1.571-8.255c-0.229-1.19-0.392-1.897-0.488-2.131
						c-0.103-0.229-0.28-0.376-0.539-0.447c-0.26-0.071-0.799-0.01-1.613,0.173l-0.351,0.076l-0.346-1.795
						c1.633-0.789,2.777-1.897,3.428-3.342L109.373,60.081z"/>
					<path d="M120.135,64.043l1.546,3.56c0.356,0.809,0.57,1.414,0.646,1.826c0.081,0.412,0.066,0.839-0.051,1.292
						s-0.32,0.839-0.621,1.165c-0.3,0.326-0.671,0.6-1.113,0.829c-0.585,0.3-1.104,0.478-1.557,0.534
						c-0.452,0.051-0.859-0.021-1.226-0.214c-0.371-0.193-0.677-0.438-0.921-0.732s-0.534-0.819-0.859-1.566l-1.617-3.723
						c-0.428-0.977-0.672-1.75-0.728-2.319c-0.056-0.564,0.086-1.119,0.417-1.648c0.336-0.534,0.834-0.966,1.49-1.307
						c0.539-0.275,1.068-0.417,1.577-0.433c0.514-0.015,0.936,0.071,1.281,0.26c0.331,0.183,0.621,0.442,0.854,0.773
						C119.49,62.669,119.785,63.239,120.135,64.043z M117.297,64.409c-0.244-0.57-0.422-0.911-0.539-1.028
						c-0.112-0.117-0.26-0.127-0.448-0.03c-0.178,0.091-0.264,0.234-0.259,0.412c0.005,0.183,0.127,0.549,0.366,1.093l2.264,5.208
						c0.27,0.615,0.463,0.977,0.569,1.078c0.112,0.097,0.26,0.097,0.438,0.005c0.183-0.092,0.27-0.229,0.259-0.407
						c-0.005-0.178-0.122-0.529-0.351-1.053L117.297,64.409z"/>
				</g>
			</g>
			<path fill="none" stroke="#000000" stroke-width="3.2333" stroke-linecap="round" d="M18.885,82.348c0,0-3.415,6.282,1.28,11.49
				c4.7,5.213,13.148,3.327,13.148,6.251c0,7.391-42.704,2.432-28.977-1.994c13.728-4.42,31.733-2.98,44.271,1.994
				c12.538,4.979,26.026,8.042,26.026,8.042"/>
		</g>
	</svg>
